<?xml version="1.0" encoding="UTF-8"?>
<svg id="Layer_2" data-name="Layer 2" xmlns="http://www.w3.org/2000/svg" viewBox="0 0 447.31 94.29">
  <defs>
    <style>
      .cls-1 {
        fill: #fff;
      }
    </style>
  </defs>
  <g id="Layer_1-2" data-name="Layer 1">
    <g>
      <g>
        <g>
          <path class="cls-1" d="M97.72,42.13v13.3h-2.27c-2.31-9.52-3.82-10.75-11.68-10.75h-8.64v20.41c10.82-.16,12.49-1.88,12.79-7.98h2.48v18.4h-2.48c-.3-6.06-1.97-7.82-12.79-7.89v23.3h1.43c16.72,0,18.64-3.85,19.86-12.87h2.5l-1.27,15.42h-36.89v-2.56h6.55v-46.24h-6.55v-2.56h36.96Z"/>
          <rect class="cls-1" x="346.58" y="24.12" width="82.93" height="2.56"/>
          <path class="cls-1" d="M31.91,92.08c-4.01,1.2-7.81,1.42-13.81,1.42H0v-2.56h6.53v-46.25H0v-2.56h18.09c6,0,9.8.23,13.81,1.42,10.14,3.03,15.36,11.22,15.36,24.26s-5.21,21.24-15.36,24.27ZM30.1,46.43c-3.33-1.55-8.25-1.75-12-1.75h-3.73v46.25h3.73c3.75,0,8.67-.18,12-1.73,5.97-2.79,8.51-9.11,8.51-21.4s-2.54-18.6-8.51-21.38Z"/>
          <polygon class="cls-1" points="268.12 93.53 276.17 59.05 281.23 59.05 281.23 56.49 267.21 56.49 267.21 59.05 273.42 59.05 267.11 85.79 265.61 79.69 259.84 60 254.62 60 247.21 85.87 245.98 79.66 241.07 59.05 246.64 59.05 246.64 56.49 229.49 56.49 229.49 59.05 234.35 59.05 242.62 93.53 247.86 93.53 255.38 67.04 257.08 73.82 262.89 93.53 268.12 93.53"/>
          <path class="cls-1" d="M414.83,55.77c11.63,0,17.17,5.94,17.17,19.21s-5.54,19.21-17.17,19.21-17.1-5.95-17.1-19.21,5.48-19.21,17.1-19.21ZM414.83,58.23c-4.2,0-9.43,2.02-9.43,16.75s5.23,16.75,9.43,16.75,9.48-2.08,9.48-16.75-5.28-16.75-9.48-16.75Z"/>
          <path class="cls-1" d="M391.8,43.64c-3.8-1.56-8.93-2.34-14.43-2.34-17.16,0-25.86,9.22-25.86,26.45s8.6,26.44,25.82,26.44c6.59,0,11.16-1.47,14.39-2.81l1.12-13.26h-2.47c-1.68,8.5-6.19,13.36-13.64,13.36-4.38,0-7.68-1.05-10.1-3.39-3.87-3.72-5.95-10.41-5.95-20.35s2.13-17.12,6.39-20.79c2.35-2.05,5.32-3,8.86-3,7.91,0,12.18,4.94,13.6,11.4h2.27v-11.72Z"/>
          <path class="cls-1" d="M146.61,43.81c-3.36-1.5-8.31-2.35-12.93-2.35-10.78,0-16.95,5.21-16.95,13.43,0,7.34,3.97,11.1,10.81,13.92,0,0,1.14.51,7,2.94,5.83,2.45,7.26,5.69,7.26,10.4,0,6.11-3.45,9.51-9.95,9.51s-11.74-4.82-13.73-13.52h-2.2l1.12,13.4c3.76,1.69,8.02,2.73,13.6,2.73,11.02,0,18.37-5.65,18.37-15.41,0-8.21-4.47-11.52-11.36-14.3,0,0-4.51-1.83-6.79-2.79-4.7-1.91-6.86-4.34-6.86-9.54s3.85-8.14,8.76-8.14c6.38,0,9.98,3.9,11.44,11.43h2.42v-11.71Z"/>
          <path class="cls-1" d="M187.63,66.19c.02-7.45-4.75-10.59-10.16-10.59-5.8,0-10.08,2.92-12.29,6.8v-20.25h-12.21v2.56h5.04v46.26h-5.04v2.56h17.47v-2.56h-5.26v-20.32c0-2.71.64-5.18,1.75-6.97,1.85-3.02,4.81-4.65,7.83-4.65,3.69,0,5.71,2.57,5.71,7.21v24.73h-5.28v2.56h17.41v-2.56h-4.96v-24.78Z"/>
          <path class="cls-1" d="M225.07,82.12v-16.28c0-7.47-5.38-10.12-13.7-10.12s-14.02,2.91-14.02,8.25c0,2.52,1.97,3.82,4.28,3.82,2,0,2.9-.6,3.52-1.33v-1.75c0-4.25,2.09-6.62,6.22-6.62,3.85,0,6.59,1.96,6.59,6.4v5.51l-12.36,3.86c-3.39,1.22-9.08,3.23-9.09,9.83-.06,7.37,5.11,10.55,11.8,10.55,5.43,0,9.05-1.89,10.89-5.98,1.02,4.64,5.46,6.36,10.49,5.31v-2.18c-2.53-.8-4.61-3.89-4.61-9.27ZM217.96,82.18c0,6-2.45,8.78-7,8.78-4.04,0-6.34-2.71-6.31-7.24.04-6.37,3.29-7.52,7.64-9.02l5.67-1.91v9.39Z"/>
          <path class="cls-1" d="M329.75,86.96c4.42-4.5,6.56-10.35,6.56-17.74,0-3.41-.85-7.07-1.49-8.98h-12.15v2.31c2.81.08,5.43.5,7.66,2.66,1.97,1.9,2.64,4.55,2.67,7.7.05,4.73-1.83,9.03-4.93,12.44-.53-.56-1.45-1.46-1.97-2-8.57-8.86-14.19-16.53-19.08-25.44-1.03-1.88-1.8-4.46-1.8-6.62,0-4.76,3.1-7.42,7.38-7.42,4.79,0,8.52,2.83,10.12,11.25h2.26v-11.46c-3.3-1.58-6.83-2.38-11.52-2.38-8.58,0-14.65,4.05-14.65,12.28,0,2.31.67,5.09,1.92,7.86-6.09,2.23-9.87,7.44-9.87,14.41,0,8.89,6.69,18.46,20.35,18.46,5.16,0,9.62-1.08,13.36-3.27,3.2,1.89,6.63,2.52,12,3.16l.7-1.96c-3.13-1.69-5.69-3.6-7.53-5.26ZM315.05,91.15c-4.84,0-9.25-1.71-12.44-4.89-3.24-3.26-5.04-7.86-5.04-12.87,0-4.65,1.3-8.38,3.83-10.5,3.94,7.97,10.9,16.87,18.22,24.11,1.01.98,1.88,1.78,2.81,2.48-2.24,1.12-4.63,1.66-7.39,1.66Z"/>
        </g>
        <polygon class="cls-1" points="280.74 26.72 0 26.72 0 24.17 280.23 24.17 337.97 0 338.96 2.36 280.74 26.72"/>
      </g>
      <path class="cls-1" d="M434.56,87.58c0-3.76,2.68-6.61,6.37-6.61s6.37,2.85,6.37,6.61-2.68,6.61-6.37,6.61-6.37-2.85-6.37-6.61ZM446.26,87.58c0-3.12-2.12-5.56-5.32-5.56s-5.32,2.44-5.32,5.56,2.12,5.56,5.32,5.56,5.32-2.44,5.32-5.56ZM438.63,83.97h2.44c1.41,0,2.25.85,2.25,2.07,0,1.05-.71,1.81-1.63,2l2.15,3.15h-1.05l-2.14-3.09h-1.03v3.09h-1v-7.22ZM441.07,87.19c.83,0,1.25-.44,1.25-1.15s-.42-1.15-1.25-1.15h-1.44v2.31h1.44Z"/>
    </g>
  </g>
</svg>