<svg width="150" height="36" viewBox="0 0 150 36" fill="none" xmlns="http://www.w3.org/2000/svg">
<path d="M30.3013 29.5246C30.3013 28.9894 30.4362 28.5755 30.706 28.2803C30.9841 27.9851 31.375 27.8389 31.8761 27.8389C31.9697 27.8389 32.077 27.8554 32.2009 27.8858C32.3331 27.9078 32.4432 27.9437 32.5368 27.9906V28.6417C32.3743 28.5479 32.1761 28.501 31.9449 28.501C31.3585 28.501 31.0639 28.8349 31.0639 29.4998V30.093H32.501V30.7772H31.0639V35.8648H30.2986V29.5219L30.3013 29.5246ZM33.4866 30.093H34.2519V31.1745C34.4446 30.8269 34.7199 30.5372 35.075 30.3027C35.4384 30.0626 35.8239 29.9605 36.2341 29.9992L36.212 30.7772C36.1102 30.7551 36.0221 30.7413 35.945 30.7413C35.6449 30.7413 35.3614 30.8351 35.0998 31.02C34.8438 31.2048 34.6401 31.4504 34.4859 31.7511C34.3317 32.0463 34.2546 32.3471 34.2546 32.6561V35.862H33.4893V30.0875L33.4866 30.093ZM39.3835 35.9945C38.8577 35.9945 38.3786 35.862 37.9464 35.5999C37.5225 35.3296 37.1811 34.9654 36.9251 34.5074C36.6773 34.0439 36.5534 33.5307 36.5534 32.9734C36.5534 32.4161 36.6773 31.8863 36.9251 31.4283C37.1811 30.9703 37.5197 30.6144 37.9464 30.3606C38.3786 30.0985 38.8577 29.9661 39.3835 29.9661C39.9093 29.9661 40.3856 30.0985 40.8095 30.3606C41.2418 30.6172 41.5831 30.9731 41.8309 31.4283C42.0869 31.8863 42.2136 32.3995 42.2136 32.9734C42.2136 33.5472 42.0869 34.0411 41.8309 34.5074C41.5831 34.9654 41.2445 35.3268 40.8095 35.5999C40.3856 35.862 39.9093 35.9945 39.3835 35.9945ZM39.3835 35.3102C39.7854 35.3102 40.1406 35.2109 40.4489 35.0095C40.7572 34.8081 40.9967 34.5294 41.1674 34.1735C41.3381 33.8176 41.4235 33.4176 41.4235 32.9761C41.4235 32.5347 41.3381 32.1484 41.1674 31.7925C40.9967 31.4366 40.7572 31.1579 40.4489 30.9565C40.1406 30.7469 39.7854 30.642 39.3835 30.642C38.9816 30.642 38.6264 30.7469 38.3181 30.9565C38.0097 31.1579 37.7702 31.4366 37.5995 31.7925C37.4289 32.1484 37.3435 32.543 37.3435 32.9761C37.3435 33.4093 37.4289 33.8149 37.5995 34.1735C37.7702 34.5294 38.0097 34.8081 38.3181 35.0095C38.6264 35.2109 38.9816 35.3102 39.3835 35.3102ZM43.5075 30.093H44.2728V31.1276C44.4821 30.802 44.7491 30.5317 45.0739 30.3137C45.4071 30.0902 45.7897 29.9771 46.2219 29.9771C46.6542 29.9771 47.0341 30.1012 47.3342 30.3496C47.637 30.5896 47.8297 30.9152 47.915 31.3262C48.0857 30.9621 48.3638 30.6448 48.7492 30.3744C49.1346 30.104 49.5558 29.9688 50.0128 29.9688C50.5607 29.9688 51.0012 30.1454 51.3343 30.5041C51.6756 30.86 51.8436 31.4338 51.8436 32.2229V35.8593H51.0782V32.3636C51.0782 31.7291 50.9654 31.2821 50.7424 31.0283C50.5194 30.7662 50.2083 30.6337 49.8146 30.6337C49.5118 30.6337 49.2282 30.7275 48.9557 30.9124C48.6859 31.0972 48.4684 31.3345 48.306 31.6215C48.1435 31.9084 48.0637 32.1953 48.0637 32.4823V35.8731H47.2984V32.3774C47.2984 31.7594 47.1827 31.318 46.9515 31.0531C46.7202 30.7827 46.4092 30.6475 46.0237 30.6475C45.7071 30.6475 45.4126 30.7413 45.1428 30.9262C44.8812 31.1055 44.6665 31.3456 44.5041 31.6463C44.3499 31.9415 44.2728 32.2533 44.2728 32.5871V35.8758H43.5075V30.1012V30.093ZM58.9105 35.9945C58.3847 35.9945 57.9029 35.8979 57.4625 35.7048C57.022 35.5034 56.6503 35.244 56.3502 34.9267C56.0474 34.6012 55.8354 34.2646 55.7115 33.9169L56.4549 33.5334C56.6338 34.0521 56.9449 34.4715 57.3936 34.7888C57.8506 35.1061 58.3544 35.2661 58.9133 35.2661C59.4721 35.2661 59.9291 35.1254 60.2925 34.8467C60.6559 34.5598 60.8376 34.1956 60.8376 33.7542C60.8376 33.3514 60.7055 33.0561 60.444 32.8713C60.1879 32.6864 59.8383 32.543 59.3896 32.4409L58.2526 32.1843C57.6276 32.0436 57.1018 31.7898 56.6751 31.4173C56.2511 31.0366 56.0364 30.5565 56.0364 29.9771C56.0364 29.5743 56.1493 29.2101 56.3723 28.8845C56.6035 28.559 56.9174 28.3024 57.311 28.1175C57.713 27.9327 58.1507 27.8389 58.6215 27.8389C59.0922 27.8389 59.5575 27.9272 59.9649 28.1065C60.3834 28.2775 60.7248 28.49 60.9973 28.7466C61.2754 28.9949 61.4598 29.2266 61.5534 29.4446L60.8349 29.864C60.6725 29.5219 60.3834 29.2211 59.9649 28.9563C59.5492 28.6942 59.0895 28.5617 58.5857 28.5617C58.2994 28.5617 58.0268 28.6197 57.7625 28.7355C57.501 28.8431 57.2863 29.0059 57.1238 29.2239C56.9697 29.4336 56.8926 29.6819 56.8926 29.9661C56.8926 30.3606 57.0357 30.6751 57.3221 30.9069C57.6166 31.1304 58.0213 31.3014 58.5389 31.4173L59.7199 31.696C61.0331 31.9967 61.6911 32.6671 61.6911 33.7045C61.6911 34.1542 61.5672 34.5515 61.3194 34.9019C61.0799 35.244 60.7468 35.5089 60.3228 35.7048C59.8989 35.8979 59.4253 35.9945 58.9078 35.9945H58.9105ZM65.6334 35.9945C65.0993 35.9945 64.6065 35.8676 64.1495 35.611C63.6925 35.3544 63.3319 34.9957 63.0593 34.5294C62.7895 34.0659 62.6546 33.5417 62.6546 32.9623C62.6546 32.3829 62.7785 31.8753 63.0263 31.4173C63.274 30.9593 63.6044 30.6034 64.0229 30.3496C64.4468 30.093 64.9148 29.9661 65.4269 29.9661C65.9747 29.9661 66.451 30.0819 66.8529 30.3137C67.2631 30.5454 67.5797 30.8627 67.8027 31.2655C68.0257 31.6601 68.1579 32.1098 68.1964 32.6147C68.2047 32.714 68.2074 32.9099 68.2074 33.1968H63.4557C63.486 33.63 63.6072 34.0052 63.8164 34.3225C64.0256 34.6398 64.2871 34.8826 64.6037 35.0537C64.9286 35.2164 65.281 35.2965 65.6581 35.2965C66.0353 35.2965 66.3959 35.1999 66.6905 35.0068C66.9933 34.8053 67.2163 34.5488 67.3623 34.2398L68.012 34.6233C67.8027 35.0261 67.4861 35.3544 67.0622 35.611C66.6382 35.8676 66.1619 35.9945 65.6361 35.9945H65.6334ZM67.3953 32.5347C67.3788 32.0077 67.2053 31.5635 66.875 31.1993C66.5419 30.8269 66.0601 30.642 65.4269 30.642C64.9314 30.642 64.4991 30.8048 64.1275 31.1304C63.7641 31.4559 63.5438 31.9249 63.4668 32.5374H67.3953V32.5347ZM69.4793 30.093H70.2446V31.1745C70.4374 30.8269 70.7127 30.5372 71.0678 30.3027C71.4312 30.0626 71.8166 29.9605 72.2268 29.9992L72.2048 30.7772C72.1029 30.7551 72.0148 30.7413 71.9377 30.7413C71.6349 30.7413 71.3541 30.8351 71.0926 31.02C70.8365 31.2048 70.6328 31.4504 70.4787 31.7511C70.3245 32.0463 70.2474 32.3471 70.2474 32.6561V35.862H69.4821V30.0875L69.4793 30.093ZM72.5489 30.093H73.3941L75.2716 35.0537L77.1134 30.093H77.9586L75.7204 35.8676H74.8394L72.5434 30.093H72.5489ZM79.7728 30.093V35.8676H79.0074V30.093H79.7728ZM79.3901 29.0611C79.2277 29.0611 79.0873 29.0032 78.9717 28.8873C78.856 28.7714 78.7982 28.6307 78.7982 28.4679C78.7982 28.2969 78.856 28.1534 78.9717 28.0375C79.0873 27.9134 79.2277 27.8527 79.3901 27.8527C79.5525 27.8527 79.6902 27.9134 79.8086 28.0375C79.9242 28.1534 79.982 28.2969 79.982 28.4679C79.982 28.639 79.9242 28.7714 79.8086 28.8873C79.6929 29.0032 79.5525 29.0611 79.3901 29.0611ZM83.9518 35.9945C83.3957 35.9945 82.8974 35.8593 82.457 35.5889C82.0165 35.3185 81.6724 34.9516 81.4246 34.4853C81.1768 34.0218 81.0529 33.5059 81.0529 32.9403C81.0529 32.3747 81.1713 31.878 81.4136 31.4311C81.6613 30.9731 82 30.6172 82.4322 30.3634C82.8727 30.1012 83.371 29.9688 83.9271 29.9688C84.4529 29.9688 84.9154 30.0875 85.3173 30.3302C85.7275 30.5703 86.0386 30.8683 86.2561 31.2242L85.5954 31.6077C85.4495 31.3373 85.221 31.1083 84.9126 30.9234C84.6126 30.7386 84.2794 30.6448 83.9161 30.6448C83.5059 30.6448 83.1425 30.7496 82.8259 30.9593C82.5093 31.169 82.2642 31.4504 82.0963 31.8063C81.9256 32.1539 81.8403 32.5457 81.8403 32.9789C81.8403 33.4121 81.9284 33.8176 82.1073 34.1763C82.2918 34.5322 82.5451 34.8109 82.8616 35.0123C83.1865 35.2137 83.5499 35.313 83.9518 35.313C84.3538 35.313 84.6924 35.2137 84.9952 35.0123C85.3036 34.8026 85.5321 34.5405 85.678 34.2232L86.3167 34.5957C86.0992 35.0068 85.7826 35.3434 85.3669 35.6055C84.9567 35.8676 84.4859 36 83.9518 36V35.9945ZM89.9919 35.9945C89.4579 35.9945 88.9651 35.8676 88.5081 35.611C88.0511 35.3544 87.6877 34.9957 87.4179 34.5294C87.1481 34.0659 87.0132 33.5417 87.0132 32.9623C87.0132 32.3829 87.1371 31.8753 87.3848 31.4173C87.6326 30.9593 87.9657 30.6034 88.3814 30.3496C88.8054 30.093 89.2734 29.9661 89.7855 29.9661C90.3333 29.9661 90.8096 30.0819 91.2115 30.3137C91.6217 30.5454 91.9383 30.8627 92.1613 31.2655C92.3843 31.6601 92.5164 32.1098 92.555 32.6147C92.5632 32.714 92.566 32.9099 92.566 33.1968H87.8143C87.8446 33.63 87.9657 34.0052 88.1749 34.3225C88.3842 34.6398 88.6457 34.8826 88.9623 35.0537C89.2872 35.2164 89.6395 35.2965 90.0167 35.2965C90.3939 35.2965 90.7545 35.1999 91.0491 35.0068C91.3492 34.8053 91.5749 34.5488 91.7208 34.2398L92.3705 34.6233C92.1613 35.0261 91.8447 35.3544 91.4207 35.611C90.9968 35.8676 90.5205 35.9945 89.9947 35.9945H89.9919ZM91.7539 32.5347C91.7373 32.0077 91.5639 31.5635 91.2335 31.1993C90.9004 30.8269 90.4186 30.642 89.7855 30.642C89.2899 30.642 88.8577 30.8048 88.486 31.1304C88.1226 31.4559 87.9024 31.9249 87.8253 32.5374H91.7539V32.5347ZM93.948 27.9685H95.085L98.8649 34.8688V27.9685H99.6632V35.8676H98.573L94.7491 28.9204V35.8676H93.948V27.9685ZM103.884 35.9945C103.358 35.9945 102.879 35.862 102.447 35.5999C102.023 35.3296 101.681 34.9654 101.428 34.5074C101.18 34.0439 101.056 33.5307 101.056 32.9734C101.056 32.4161 101.18 31.8863 101.428 31.4283C101.684 30.9703 102.023 30.6144 102.447 30.3606C102.879 30.0985 103.358 29.9661 103.884 29.9661C104.409 29.9661 104.886 30.0985 105.31 30.3606C105.742 30.6172 106.083 30.9731 106.328 31.4283C106.584 31.8863 106.711 32.3995 106.711 32.9734C106.711 33.5472 106.584 34.0411 106.328 34.5074C106.08 34.9654 105.742 35.3268 105.31 35.5999C104.886 35.862 104.409 35.9945 103.884 35.9945ZM103.884 35.3102C104.286 35.3102 104.641 35.2109 104.949 35.0095C105.257 34.8081 105.497 34.5294 105.668 34.1735C105.838 33.8176 105.924 33.4176 105.924 32.9761C105.924 32.5347 105.838 32.1484 105.668 31.7925C105.497 31.4366 105.257 31.1579 104.949 30.9565C104.641 30.7469 104.286 30.642 103.884 30.642C103.482 30.642 103.127 30.7469 102.818 30.9565C102.51 31.1579 102.27 31.4366 102.1 31.7925C101.929 32.1484 101.844 32.543 101.844 32.9761C101.844 33.4093 101.929 33.8149 102.1 34.1735C102.27 34.5294 102.51 34.8081 102.818 35.0095C103.127 35.2109 103.482 35.3102 103.884 35.3102ZM107.322 30.093H108.134L109.434 35.0537L110.744 30.093H111.752L113.12 35.0757L114.441 30.093H115.24L113.618 35.8676H112.633L111.253 30.8958L109.91 35.8676H108.935L107.325 30.093H107.322Z" fill="black"/>
<path d="M11.599 0H8.53125C7.89583 0 7.38021 0.517272 7.38021 1.15472V3.04093L4.21875 0H1.15104C0.515625 0 0 0.517272 0 1.15472V10.9359H1.80729V1.81307H3.49479L7.38542 5.55415V10.9359H9.19271V7.28884L12.9844 10.9359H15.5938L9.19271 4.78085V1.81307H10.8802L20.3177 10.8888L20.3646 10.9359H22.974L11.599 0Z" fill="black"/>
<path d="M20.3542 15.5652L10.8698 24.688H9.18229V21.7202L15.2865 15.8526L15.5833 15.5704H12.974L9.18229 19.2174V15.5704H7.375V20.9521L3.48958 24.688H1.80208V15.5652H0V25.3463C0 25.9838 0.515625 26.5011 1.15104 26.5011H4.21875L7.38021 23.4601V25.3463C7.38021 25.9838 7.89583 26.5011 8.53125 26.5011H11.599L22.6719 15.8526L22.9688 15.5704H20.3594L20.3542 15.5652Z" fill="black"/>
<path d="M70.0469 6.43717L65.8594 18.1777H65.6615L61.474 6.43717H59.5833L64.526 20.0587H66.9948L71.9375 6.43717H70.0469Z" fill="black"/>
<path d="M40.9271 6.43717L36.8333 18.0836H36.6406L32.5469 6.43717H29.5677V20.0587H31.349V8.7048H31.5052L35.5052 20.0587H37.9688L41.9688 8.7048H42.125V20.0587H43.9063V6.43717H40.9271Z" fill="black"/>
<path d="M52.6302 6.24907C49.0313 6.24907 46.125 9.081 46.125 13.2505C46.125 17.4201 49.0313 20.252 52.6302 20.252C56.2292 20.252 59.1354 17.4201 59.1354 13.2505C59.1354 9.081 56.2292 6.24907 52.6302 6.24907ZM52.6302 18.5591C50.0469 18.5591 47.9063 16.4325 47.9063 13.2505C47.9063 10.0685 50.0469 7.94196 52.6302 7.94196C55.2135 7.94196 57.3542 10.0685 57.3542 13.2505C57.3542 16.4325 55.2135 18.5591 52.6302 18.5591Z" fill="black"/>
<path d="M73.3438 6.43717V20.0587H82.1667V18.3658H75.125V14.0499H81.7865V12.3571H75.125V8.13006H82.1667V6.43717H73.3438Z" fill="black"/>
<path d="M133.385 13.1513L139.401 6.43717H137.146L131.724 12.5243V6.43717H129.938V20.0587H131.724V13.773L137.531 20.0587H139.786L133.385 13.1513Z" fill="black"/>
<path d="M149.057 13.8253C148.411 13.2035 147.432 12.7907 146.089 12.5504L143.995 12.169C143.26 12.0383 142.74 11.7823 142.406 11.4479C142.073 11.1135 141.911 10.6903 141.911 10.1991C141.911 9.56692 142.156 9.00785 142.635 8.60553C143.12 8.20321 143.844 7.94196 144.823 7.94196C146.964 7.94196 148.12 9.1437 148.12 10.4813V10.6119H149.901V10.4813C149.901 8.09871 147.922 6.24907 144.823 6.24907C143.37 6.24907 142.198 6.66184 141.385 7.36721C140.573 8.07258 140.125 9.06533 140.125 10.1991C140.125 11.1814 140.417 11.9756 140.984 12.5713C141.552 13.1669 142.391 13.5588 143.464 13.7626L146.031 14.2381C146.776 14.3791 147.323 14.6351 147.677 14.98C148.031 15.3248 148.208 15.7637 148.208 16.3071C148.208 16.9394 147.984 17.4984 147.484 17.9008C146.979 18.3031 146.182 18.5643 145.01 18.5643C143.839 18.5643 143.042 18.2613 142.479 17.7963C141.911 17.3312 141.625 16.699 141.625 16.025V15.8944H139.844V16.025C139.844 18.3083 141.823 20.2572 145.016 20.2572C146.604 20.2572 147.854 19.8444 148.703 19.1443C149.557 18.4389 150 17.4462 150 16.3124C150 15.283 149.708 14.4575 149.057 13.8305V13.8253Z" fill="black"/>
<path d="M99.724 6.43717L96.8698 18.1777H96.6927L93.6458 6.43717H91.1615L88.1198 18.1777H87.9375L85.0833 6.43717H83.1979L86.5938 20.0587H89.4583L92.3125 8.8929H92.4948L95.349 20.0587H98.2135L101.609 6.43717H99.724Z" fill="black"/>
<path d="M122.786 14.9068H123.703C125.875 14.9068 127.641 13.1251 127.641 10.6746C127.641 8.22411 125.875 6.44239 123.703 6.44239H117.771V20.0639H119.552V14.9121H120.51L125.839 20.0639H128.115L122.786 14.9121V14.9068ZM123.703 13.214H119.552V8.13006H123.703C124.854 8.13006 125.854 9.10713 125.854 10.6694C125.854 12.2317 124.854 13.2087 123.703 13.2087V13.214Z" fill="black"/>
<path d="M109.062 6.24907C105.464 6.24907 102.557 9.081 102.557 13.2505C102.557 17.4201 105.464 20.252 109.062 20.252C112.661 20.252 115.568 17.4201 115.568 13.2505C115.568 9.081 112.661 6.24907 109.062 6.24907ZM109.062 18.5591C106.479 18.5591 104.339 16.4325 104.339 13.2505C104.339 10.0685 106.479 7.94196 109.062 7.94196C111.646 7.94196 113.786 10.0685 113.786 13.2505C113.786 16.4325 111.646 18.5591 109.062 18.5591Z" fill="black"/>
</svg>
